<svg version="1.0" xmlns="http://www.w3.org/2000/svg"
 width="750.000000pt" height="750.000000pt" viewBox="0 0 750.000000 750.000000"
 preserveAspectRatio="xMidYMid meet">

<g transform="translate(0.000000,750.000000) scale(0.100000,-0.100000)"
fill="#000000" stroke="none">
<path d="M2370 5615 c0 -8 -9 -15 -20 -15 -15 0 -20 -7 -20 -25 0 -14 -4 -25
-10 -25 -7 0 -10 -342 -10 -1005 0 -663 3 -1005 10 -1005 6 0 10 -88 10 -245
0 -222 -6 -277 -24 -229 -3 9 -6 27 -6 40 0 15 -6 24 -15 24 -8 0 -15 9 -15
20 0 11 -4 20 -10 20 -5 0 -10 11 -10 25 0 16 -6 25 -15 25 -10 0 -15 10 -15
30 0 17 -4 30 -9 30 -6 0 -13 20 -17 45 -3 25 -10 45 -15 45 -5 0 -9 11 -9 25
0 14 -4 25 -10 25 -5 0 -10 11 -10 25 0 16 -6 25 -15 25 -8 0 -15 9 -15 20 0
11 -4 20 -10 20 -5 0 -10 11 -10 24 0 35 -10 56 -26 56 -9 0 -14 11 -14 30 0
17 -4 30 -10 30 -5 0 -10 9 -10 20 0 11 -4 20 -10 20 -5 0 -10 14 -10 30 0 17
-4 30 -9 30 -6 0 -13 20 -17 45 -4 28 -11 45 -20 45 -8 0 -14 7 -14 15 0 8 -4
15 -10 15 -5 0 -10 9 -10 20 0 11 -7 20 -15 20 -10 0 -15 10 -15 30 0 17 -4
30 -10 30 -5 0 -10 11 -10 25 0 14 -4 25 -9 25 -5 0 -12 16 -15 35 -4 19 -11
35 -16 35 -6 0 -10 9 -10 20 0 11 -7 20 -15 20 -10 0 -15 10 -15 30 0 17 -4
30 -10 30 -5 0 -10 11 -10 25 0 15 -6 25 -15 25 -10 0 -16 16 -21 51 -5 38
-12 53 -25 56 -13 4 -19 15 -19 34 0 16 -4 29 -10 29 -5 0 -10 11 -10 25 0 15
-6 25 -15 25 -10 0 -16 16 -21 50 -5 40 -10 50 -25 50 -15 0 -19 8 -19 40 0
22 -4 40 -10 40 -5 0 -10 9 -10 20 0 11 -7 20 -15 20 -10 0 -16 16 -21 50 -5
40 -10 50 -25 50 -14 0 -20 10 -25 40 -4 22 -10 40 -15 40 -5 0 -9 9 -9 20 0
11 -4 20 -9 20 -5 0 -11 23 -15 50 -5 41 -10 50 -26 50 -15 0 -21 9 -26 40 -4
22 -10 40 -15 40 -5 0 -9 9 -9 20 0 11 -7 20 -15 20 -10 0 -15 10 -15 30 0 17
-4 30 -10 30 -5 0 -10 11 -10 25 0 14 -4 25 -9 25 -5 0 -12 16 -15 35 -4 21
-13 35 -21 35 -8 0 -15 9 -15 20 0 11 -4 20 -10 20 -5 0 -10 12 -10 26 0 26
-20 54 -39 54 -6 0 -11 14 -11 30 0 18 -6 33 -15 36 -8 4 -15 12 -15 20 0 8
-4 14 -10 14 -5 0 -10 5 -10 11 0 20 -29 39 -59 39 -21 0 -31 5 -31 15 0 13
-23 15 -150 15 -127 0 -150 -2 -150 -15 0 -9 -9 -15 -21 -15 -11 0 -28 -8 -37
-17 -16 -15 -17 -128 -20 -1512 -2 -823 0 -1511 3 -1528 5 -27 11 -33 30 -33
16 0 25 -6 25 -15 0 -12 18 -15 100 -15 82 0 100 3 100 15 0 9 9 15 25 15 20
0 25 6 30 34 4 19 5 614 3 1323 -1 708 -2 1278 0 1266 2 -13 9 -23 17 -23 8 0
16 -18 20 -50 4 -27 11 -50 16 -50 5 0 9 -11 9 -25 0 -15 6 -25 15 -25 10 0
16 -16 21 -50 4 -27 11 -50 16 -50 18 0 38 -29 38 -54 0 -14 5 -26 10 -26 6 0
10 -9 10 -20 0 -11 4 -20 9 -20 5 0 11 -22 15 -50 5 -34 11 -50 21 -50 9 0 15
-10 15 -25 0 -14 5 -25 10 -25 6 0 10 -7 10 -15 0 -8 5 -15 10 -15 6 0 10 -9
10 -20 0 -11 6 -20 14 -20 9 0 16 -18 21 -55 3 -30 11 -55 16 -55 5 0 9 -9 9
-20 0 -11 5 -20 10 -20 6 0 10 -7 10 -15 0 -8 7 -15 15 -15 8 0 15 -9 15 -20
0 -11 4 -20 9 -20 5 0 12 -25 16 -55 5 -44 10 -55 25 -55 12 0 20 -10 24 -35
4 -19 11 -35 16 -35 6 0 10 -11 10 -25 0 -14 4 -25 9 -25 5 0 12 -22 16 -50 5
-40 11 -50 26 -50 15 0 20 -10 25 -50 4 -27 11 -50 16 -50 22 0 38 -31 38 -74
0 -38 3 -46 19 -46 15 0 20 -10 25 -50 5 -34 11 -50 21 -50 8 0 15 -7 15 -15
0 -8 5 -15 10 -15 6 0 10 -11 10 -25 0 -15 6 -25 14 -25 10 0 18 -22 27 -75 6
-41 16 -75 21 -75 17 0 38 -28 38 -49 0 -12 6 -21 15 -21 8 0 15 -9 15 -20 0
-11 4 -20 9 -20 5 0 12 -25 16 -55 3 -30 11 -55 16 -55 5 0 9 -7 9 -15 0 -8 5
-15 10 -15 6 0 10 -9 10 -20 0 -11 7 -20 15 -20 9 0 15 -9 15 -25 0 -14 5 -25
10 -25 6 0 10 -11 10 -25 0 -15 6 -25 14 -25 8 0 16 -16 20 -40 3 -22 11 -40
16 -40 6 0 10 -9 10 -20 0 -11 5 -20 10 -20 6 0 10 -11 10 -25 0 -14 5 -25 10
-25 6 0 10 -13 10 -30 0 -19 5 -30 14 -30 8 0 17 -15 20 -35 4 -19 11 -35 16
-35 6 0 10 -9 10 -20 0 -11 7 -20 15 -20 8 0 15 -7 15 -15 0 -8 5 -15 10 -15
6 0 10 -7 10 -15 0 -8 5 -15 10 -15 6 0 10 -11 10 -25 0 -16 6 -25 15 -25 8 0
15 -6 15 -14 0 -14 29 -26 68 -26 13 0 22 -6 22 -15 0 -13 21 -15 125 -15 102
0 125 3 125 14 0 8 10 16 23 18 17 2 23 11 25 36 2 24 8 32 23 32 19 0 19 23
19 1510 l0 1510 -25 0 c-16 0 -25 6 -25 15 0 12 -19 15 -115 15 -96 0 -115 -3
-115 -15z"/>
<path d="M3430 5585 c0 -8 -7 -15 -15 -15 -8 0 -15 -4 -15 -10 0 -5 -7 -10
-15 -10 -8 0 -15 -7 -15 -15 0 -8 -4 -15 -10 -15 -7 0 -10 -508 -10 -1505 0
-997 3 -1505 10 -1505 6 0 10 -7 10 -15 0 -8 9 -15 20 -15 11 0 20 -7 20 -15
0 -12 18 -15 100 -15 82 0 100 3 100 15 0 10 11 15 35 15 28 0 35 4 35 20 0
11 7 20 15 20 13 0 15 80 15 660 l0 660 460 0 c402 0 460 2 460 15 0 8 7 15
15 15 11 0 15 12 15 50 0 28 5 50 10 50 6 0 10 20 10 45 0 25 -4 45 -10 45 -5
0 -10 23 -10 50 0 38 -4 50 -15 50 -8 0 -15 7 -15 15 0 13 -58 15 -460 15
l-460 0 0 535 0 535 499 0 499 0 6 31 c8 40 8 242 0 263 -3 9 -12 16 -20 16
-8 0 -14 7 -14 15 0 13 -76 15 -625 15 -549 0 -625 -2 -625 -15z"/>
<path d="M4965 5548 c-3 -29 -5 -105 -3 -168 l3 -115 383 -3 382 -2 0 -1375
c0 -1216 2 -1375 15 -1375 8 0 15 -7 15 -15 0 -10 10 -15 30 -15 20 0 30 -5
30 -15 0 -12 18 -15 100 -15 82 0 100 3 100 15 0 9 9 15 25 15 16 0 25 6 25
15 0 8 5 15 10 15 7 0 10 465 10 1375 l0 1374 389 3 c214 2 393 7 398 11 11
12 17 176 8 243 -4 37 -11 54 -21 54 -8 0 -14 7 -14 15 0 13 -111 15 -939 15
l-940 0 -6 -52z"/>
</g>
</svg>
